PathFileType	4	(X/Y/Z)	/Users/niels/Desktop/University/Third Semester/Perception and Action/Exam/Gymnastics Motion Tracking/Code for Gym Tracking/Analyzed Data/Webcam_Backflip/id5_2_baseline_Sports2D/id5_2_baseline_Sports2D_px_person00.trc
DataRate	CameraRate	NumFrames	NumMarkers	Units	OrigDataRate	OrigDataStartFrame	OrigNumFrames
29.81132075471698	29.81132075471698	7	22	m	29.81132075471698	79	159
Frame#	Time	Hip			RHip			RKnee			RAnkle			RBigToe			RSmallToe			RHeel			LHip			LKnee			LAnkle			LBigToe			LSmallToe			LHeel			Neck			Head			Nose			RShoulder			RElbow			RWrist			LShoulder			LElbow			LWrist		
		X1	Y1	Z1	X2	Y2	Z2	X3	Y3	Z3	X4	Y4	Z4	X5	Y5	Z5	X6	Y6	Z6	X7	Y7	Z7	X8	Y8	Z8	X9	Y9	Z9	X10	Y10	Z10	X11	Y11	Z11	X12	Y12	Z12	X13	Y13	Z13	X14	Y14	Z14	X15	Y15	Z15	X16	Y16	Z16	X17	Y17	Z17	X18	Y18	Z18	X19	Y19	Z19	X20	Y20	Z20	X21	Y21	Z21	X22	Y22	Z22
79	2.65	0.7712557648046534	-0.559449376617781	0.0	0.7731264057682535	-0.5586666120597762	0.0	0.8428116199882654	-0.6374668174469522	0.0	0.8268221497923863	-0.746520125767405	0.0	0.8679648516919567	-0.7626323825482729	0.0	0.8582151966437589	-0.7662388217354781	0.0	0.8179307399365766	-0.7581824925959476	0.0	0.7746523841634769	-0.5560480842124702	0.0	0.8238629723043109	-0.641800177951765	0.0	0.7726191403277113	-0.7231061508120106	0.0	0.8038945145626363	-0.7481920978559871	0.0	0.798857118313614	-0.7431439445219215	0.0	0.7584389430600208	-0.7320917894007644	0.0	0.7892116845518554	-0.4217788722944498	0.0	0.8121803715861593	-0.36041962189855115	0.0	0.8256649107585174	-0.4004776095423662	0.0	0.7808074648443066	-0.43413046144440526	0.0	0.8196071417849944	-0.48861769983791453	0.0	0.8765448704882856	-0.5221015188220534	0.0	0.7863001385262848	-0.4333742257081672	0.0	0.8321600664861518	-0.47797045589038245	0.0	0.8865826485915899	-0.5000853769431426	0.0
80	2.6835443037974684	0.7660363169027983	-0.5490387860396242	0.0	0.7669098158223168	-0.5487293855604196	0.0	0.8312014311582558	-0.6331302667654928	0.0	0.8263097728602752	-0.7441520363385562	0.0	0.8682264356060386	-0.7607890843240385	0.0	0.8582442593323948	-0.7644600604180243	0.0	0.8179616277090281	-0.7564237851219932	0.0	0.7696423853125437	-0.5460290028408431	0.0	0.811155949425649	-0.63819582685154	0.0	0.7560952060709694	-0.7185726540097469	0.0	0.7860571943990387	-0.7477337388051243	0.0	0.7815411696187408	-0.7425560299703338	0.0	0.7414964747314997	-0.7265648904300196	0.0	0.7797190506220667	-0.4116431229133708	0.0	0.8002402135555431	-0.3482610905883924	0.0	0.8154846346958597	-0.388452412490367	0.0	0.7709046287010174	-0.4234545560505067	0.0	0.8147759311872169	-0.4710007187173088	0.0	0.8731601710515492	-0.4976470739441286	0.0	0.7809443230788987	-0.42265920116093625	0.0	0.8307186697022705	-0.46057024929026813	0.0	0.8875691425545033	-0.47512134455941585	0.0
81	2.7170886075949365	0.7612272570490919	-0.5428185794567294	0.0	0.7611220925799015	-0.5430202031900756	0.0	0.820279605004176	-0.6317647037627733	0.0	0.8259785502326614	-0.7435674943631787	0.0	0.868277978938368	-0.7602782260876108	0.0	0.8584277712788622	-0.7640100550749985	0.0	0.818079590365701	-0.7565033250615012	0.0	0.7648323857412891	-0.5404068823140133	0.0	0.7972442670216701	-0.6380460478768508	0.0	0.7367552600328754	-0.7167470639379496	0.0	0.7642664501326335	-0.7499555504138931	0.0	0.7603064205952992	-0.7446708018516721	0.0	0.7217475249593968	-0.723634431808937	0.0	0.7700814506936446	-0.40538525209958215	0.0	0.7884404024928626	-0.3402846014789427	0.0	0.8050890337920875	-0.3804979183634051	0.0	0.7603436657091078	-0.4168277296781987	0.0	0.8072997379719696	-0.4568439318326034	0.0	0.8670017357301967	-0.4748318561822754	0.0	0.7757617512841164	-0.4158573844872118	0.0	0.8278119838573885	-0.44602530112925504	0.0	0.8858428289129535	-0.4531479756963662	0.0
82	2.750632911392405	0.7565575973614045	-0.5408716580286	0.0	0.7555629300339091	-0.5415529673350925	0.0	0.8105216810547754	-0.6330055097593656	0.0	0.8256591714154584	-0.7445409217323198	0.0	0.8681948961064673	-0.7606847206575309	0.0	0.8587574888277052	-0.7645513559430351	0.0	0.8182375747800456	-0.7581632755335223	0.0	0.7600008589311664	-0.5391066220745234	0.0	0.7823776855978289	-0.6408545799049058	0.0	0.7170103017371285	-0.7183811600403145	0.0	0.7418653063695068	-0.754140549285512	0.0	0.7383665664932934	-0.7489629284492607	0.0	0.7019510431227732	-0.7246498114196515	0.0	0.7606611943263027	-0.4029052360593106	0.0	0.7769994388287215	-0.33666941101340697	0.0	0.7947588313217081	-0.37661008355894166	0.0	0.7494337732309688	-0.41425508351874435	0.0	0.797397212806065	-0.4465492212106613	0.0	0.8577211186587307	-0.4551246470551595	0.0	0.7709516112551038	-0.41300243716824453	0.0	0.8244144200822128	-0.4350016006122783	0.0	0.8820106088009283	-0.43495324619983333	0.0
83	2.784177215189873	0.7517181931081143	-0.5429059702163874	0.0	0.7498971751577911	-0.543993271744451	0.0	0.8021162041797443	-0.6365175414024976	0.0	0.8251744514316653	-0.7470596178412953	0.0	0.8679712273896553	-0.7619483637728127	0.0	0.8590992185046701	-0.7661208967279223	0.0	0.8182963589431201	-0.761330237698126	0.0	0.7549265809046112	-0.5417227134321979	0.0	0.7669186411063023	-0.6461510368366873	0.0	0.6991330677520745	-0.7240412775631767	0.0	0.7224207824264969	-0.7599132250896861	0.0	0.7190885557033402	-0.7551457904747765	0.0	0.6845444965701983	-0.730645895333809	0.0	0.7517865684824139	-0.40394262250336327	0.0	0.7661172565837688	-0.33726413265160415	0.0	0.7848090974051979	-0.3764789253047035	0.0	0.7386119585706687	-0.41555565388814175	0.0	0.7855547245736335	-0.44042005807574214	0.0	0.8453903634283607	-0.43973769520678707	0.0	0.7665068483125873	-0.41388624700686955	0.0	0.8211097923313732	-0.42784356445888777	0.0	0.8768639976907473	-0.420835988917874	0.0
84	2.8177215189873417	0.7464282846222113	-0.5483606001871012	0.0	0.7437980103099371	-0.5497549733972181	0.0	0.795009357401111	-0.6419590578027526	0.0	0.8244215576626502	-0.7511062918348929	0.0	0.8675618447384273	-0.764183483008965	0.0	0.8593299075996177	-0.7688733939581062	0.0	0.8181064835980699	-0.765935742994388	0.0	0.749408756342427	-0.5476372379240404	0.0	0.751469697598973	-0.6535151905239577	0.0	0.6845572367038315	-0.7335223363289894	0.0	0.7081499846595498	-0.7670488862941287	0.0	0.7045400908302216	-0.7629020218404939	0.0	0.6708769451090073	-0.7414180155990253	0.0	0.7436410565144098	-0.4081279363383482	0.0	0.755931127761865	-0.3416603802974134	0.0	0.7755204487290598	-0.3796394129629176	0.0	0.7283276083900547	-0.4203276277060071	0.0	0.7724504653292387	-0.4386743589542532	0.0	0.8304802880188218	-0.4295239254964842	0.0	0.762211724165984	-0.41811141407137214	0.0	0.8177889969264662	-0.424594968687933	0.0	0.8709660920360325	-0.4107571805442686	0.0
85	2.85126582278481	0.7405049785955576	-0.5565279329248313	0.0	0.7370834630482164	-0.5581121570865458	0.0	0.7889765783829936	-0.6489666575084945	0.0	0.8233883952494755	-0.7565105347001384	0.0	0.866947847916244	-0.767458451846182	0.0	0.8594036444239033	-0.7728156820570697	0.0	0.8176093166610082	-0.7717660391940934	0.0	0.7433478931136974	-0.5561150450443056	0.0	0.73682695512162	-0.662550592390296	0.0	0.673714354758231	-0.7458205397682833	0.0	0.6991398139064067	-0.7753144843443248	0.0	0.6948107720744167	-0.7718014166028774	0.0	0.6611695542813448	-0.7554835781510337	0.0	0.7362953491088928	-0.4149722578327391	0.0	0.7465533891180043	-0.34921915206747317	0.0	0.7670849688287522	-0.3855655125964727	0.0	0.7189671860808958	-0.42789571844225904	0.0	0.7588921480391355	-0.4413166862067561	0.0	0.813827389226355	-0.42479590407698287	0.0	0.757875034849874	-0.4251118501271013	0.0	0.8138806561745338	-0.42510189977893525	0.0	0.8645648935471791	-0.40456692626466845	0.0
